<?xml version="1.0" encoding="UTF-8" standalone="no"?>
<!DOCTYPE svg PUBLIC "-//W3C//DTD SVG 1.1//EN" "http://www.w3.org/Graphics/SVG/1.1/DTD/svg11.dtd">
<svg width="100%" height="100%" viewBox="0 0 48 48" version="1.1" xmlns="http://www.w3.org/2000/svg" xmlns:xlink="http://www.w3.org/1999/xlink" xml:space="preserve" xmlns:serif="http://www.serif.com/" style="fill-rule:evenodd;clip-rule:evenodd;stroke-linejoin:round;stroke-miterlimit:2;">
    <path d="M11.1,44C9.642,44 8.402,43.49 7.381,42.469C6.36,41.448 5.85,40.208 5.85,38.75L5.85,32.5L12.2,32.5L12.2,4L15.19,7L18.18,4L21.17,7L24.16,4L27.15,7L30.15,4L33.15,7L36.15,4L39.15,7L42.15,4L42.15,38.75C42.15,40.208 41.64,41.448 40.619,42.469C39.598,43.49 38.358,44 36.9,44L11.1,44ZM36.9,41C37.567,41 38.108,40.792 38.525,40.375C38.942,39.958 39.15,39.417 39.15,38.75L39.15,9L15.2,9L15.2,32.5L34.65,32.5L34.65,38.75C34.65,39.417 34.858,39.958 35.275,40.375C35.692,40.792 36.233,41 36.9,41ZM17.85,16.9L17.85,13.9L29.85,13.9L29.85,16.9L17.85,16.9ZM17.85,23.6L17.85,20.6L29.85,20.6L29.85,23.6L17.85,23.6ZM34.5,16.9C34.1,16.9 33.75,16.75 33.45,16.45C33.15,16.15 33,15.8 33,15.4C33,15 33.15,14.65 33.45,14.35C33.75,14.05 34.1,13.9 34.5,13.9C34.9,13.9 35.25,14.05 35.55,14.35C35.85,14.65 36,15 36,15.4C36,15.8 35.85,16.15 35.55,16.45C35.25,16.75 34.9,16.9 34.5,16.9ZM34.5,23.35C34.1,23.35 33.75,23.2 33.45,22.9C33.15,22.6 33,22.25 33,21.85C33,21.45 33.15,21.1 33.45,20.8C33.75,20.5 34.1,20.35 34.5,20.35C34.9,20.35 35.25,20.5 35.55,20.8C35.85,21.1 36,21.45 36,21.85C36,22.25 35.85,22.6 35.55,22.9C35.25,23.2 34.9,23.35 34.5,23.35ZM11.05,41L31.65,41L31.65,35.5L8.85,35.5L8.85,38.75C8.85,39.417 9.061,39.958 9.483,40.375C9.904,40.792 10.427,41 11.05,41ZM8.85,41L8.85,35.5L8.85,41Z" style="fill:rgb(0,148,109);fill-rule:nonzero;"/>
</svg>
